# xmcd
#
# Track frame offsets: 
#        150
#        17544
#        32842
#        48182
#        62194
#        78363
#        94306
#        108733
#        127186
#        146386
#        160223
#        173914
#        191159
#        207953
#        224200
#        241178
#        258618
#        275927
#        292446
#        309501
#
# Disc length: 4294 seconds
#
# Revision: 1
# Processed by: cddbd v1.5.2PL0 Copyright (c) Steve Scherf et al.
# Submitted via: ExactAudioCopyFreeDBPlugin 1.0
#
DISCID=4310c414
DTITLE=Various Artist - Black Summer Party 2014 [CD1]
DYEAR=2014
DGENRE=R&B
TTITLE0=Pharrell Williams - Happy
TTITLE1=Pitbull - Timber (feat. Ke$ha)
TTITLE2=Rita Ora - I Will Never Let You Down
TTITLE3=Sean Paul - Hey Baby
TTITLE4=Jason Derulo - Trumpets
TTITLE5=Cris Cab - Liar Liar
TTITLE6=Sam Smith - Money On My Mind
TTITLE7=Nico and Vinz - Am I Wrong
TTITLE8=Aloe Blacc - The Man
TTITLE9=Naughty Boy - Think About It (Explicit Version) (feat. Wiz Kha
TTITLE9=lifa and Ella Eyre)
TTITLE10=The Roots - When The People Cheer (Explicit Version) (feat. M
TTITLE10=odesty Lycan)
TTITLE11=Bruno Mars - Young Girls
TTITLE12=Rihanna - Diamonds
TTITLE13=Rudimental - Free (feat. Emeli Sandé)
TTITLE14=Drake - Hold On, We're Going Home (feat. Majid Jordan)
TTITLE15=Trey Songz - Na Na
TTITLE16=Robin Thicke - Give It 2 U (Explicit Version) (feat. Kendrick
TTITLE16=Lamar)
TTITLE17=Far East Movement - The Illest (Explicit Version) (feat. Riff
TTITLE17=Raff)
TTITLE18=Major Lazer - Bubble Butt (feat. Bruno Mars and Tyga and Mystic)
TTITLE19=LE1F - Wut
EXTD=
EXTT0=
EXTT1=
EXTT2=
EXTT3=
EXTT4=
EXTT5=
EXTT6=
EXTT7=
EXTT8=
EXTT9=
EXTT10=
EXTT11=
EXTT12=
EXTT13=
EXTT14=
EXTT15=
EXTT16=
EXTT17=
EXTT18=
EXTT19=
PLAYORDER=
